<svg id="visual" viewBox="0 0 900 450" width="900" height="450" xmlns="http://www.w3.org/2000/svg" xmlns:xlink="http://www.w3.org/1999/xlink" version="1.1"><rect x="0" y="0" width="900" height="450" fill="#002233"></rect><path d="M0 318L21.5 330C43 342 86 366 128.8 365.3C171.7 364.7 214.3 339.3 257.2 339.7C300 340 343 366 385.8 375C428.7 384 471.3 376 514.2 361.8C557 347.7 600 327.3 642.8 328C685.7 328.7 728.3 350.3 771.2 356.5C814 362.7 857 353.3 878.5 348.7L900 344L900 451L878.5 451C857 451 814 451 771.2 451C728.3 451 685.7 451 642.8 451C600 451 557 451 514.2 451C471.3 451 428.7 451 385.8 451C343 451 300 451 257.2 451C214.3 451 171.7 451 128.8 451C86 451 43 451 21.5 451L0 451Z" fill="#0066FF" stroke-linecap="round" stroke-linejoin="miter"></path></svg>